<svg width="20" height="20" viewBox="0 0 20 20" fill="none" xmlns="http://www.w3.org/2000/svg">
<g id="food">
<path id="Vector" d="M20 10C20 4.48609 15.5143 0 10 0C4.48566 0 0 4.48609 0 10C0 12.7237 1.18395 14.7454 3.5016 16.0252C3.96199 19.2534 5.3666 20 10 20C14.504 20 15.9596 19.3015 16.4604 16.2973C18.803 15.0859 20 12.9738 20 10Z" fill="#303C42"/>
<path id="SVGCleanerId 0" d="M19.0904 11.1458C18.0866 10.2059 17.5 8.88759 17.5 7.50001C17.5 6.79032 17.653 6.09219 17.9454 5.44794C18.7179 6.79091 19.1666 8.34259 19.1666 10C19.1667 10.4031 19.1365 10.7811 19.0904 11.1458Z" fill="#F2F2F2"/>
<g id="Group">
<path id="Vector_2" d="M9.99993 9.99999C12.3011 9.99999 14.1666 8.1345 14.1666 5.83331C14.1666 3.53211 12.3011 1.66663 9.99993 1.66663C7.69874 1.66663 5.83325 3.53211 5.83325 5.83331C5.83325 8.1345 7.69874 9.99999 9.99993 9.99999Z" fill="#F2F2F2"/>
<path id="Vector_3" d="M2.05454 5.44794C2.34688 6.09219 2.49993 6.79032 2.49993 7.50001C2.49993 8.877 1.92009 10.1889 0.927354 11.1277C0.871572 10.7665 0.833252 10.3947 0.833252 10C0.833252 8.34259 1.28204 6.79094 2.05454 5.44794Z" fill="#F2F2F2"/>
</g>
<path id="Vector_4" d="M10 19.1667C5.12128 19.1667 4.49304 18.3745 4.22449 15.0167C5.42402 13.7179 7.6164 12.9167 10 12.9167C12.3837 12.9167 14.5761 13.7179 15.7756 15.0167C15.507 18.3744 14.8788 19.1667 10 19.1667Z" fill="#F9C69E"/>
<path id="SVGCleanerId 1" d="M16.5859 15.2728C16.5973 15.1497 16.6106 15.0329 16.6202 14.9036C16.6284 14.7941 16.5926 14.6859 16.5218 14.6021C15.1961 13.0485 12.6969 12.0834 9.99996 12.0834C7.30304 12.0834 4.80382 13.0485 3.47816 14.6021C3.40734 14.6859 3.37156 14.7941 3.37968 14.9036C3.38191 14.9333 3.38527 14.959 3.38757 14.9883C2.26878 14.2411 1.52316 13.2513 1.1405 12.0385C2.51464 10.9345 3.33328 9.26519 3.33328 7.50003C3.33328 6.49972 3.06207 5.52503 2.57039 4.65195C4.14265 2.47402 6.64269 1.01726 9.48921 0.859292C6.97109 1.11589 4.99996 3.24859 4.99996 5.83335C4.99996 8.5905 7.24281 10.8334 9.99996 10.8334C12.7571 10.8334 15 8.5905 15 5.83335C15 3.24855 13.0288 1.11589 10.5107 0.859253C13.3572 1.01722 15.8572 2.47398 17.4295 4.65191C16.9378 5.52503 16.6666 6.49968 16.6666 7.49999C16.6666 9.28914 17.5044 10.9753 18.9093 12.0789C18.5437 13.4598 17.7763 14.5186 16.5859 15.2728Z" fill="#28BE4A"/>
<path id="Vector_5" d="M10 19.1667C14.8788 19.1667 15.507 18.3745 15.7756 15.0167C14.5761 13.7179 12.3837 12.9167 10 12.9167C7.6164 12.9167 5.42402 13.7179 4.22449 15.0167L8.33144 19.1236C8.82425 19.1532 9.37644 19.1667 10 19.1667Z" fill="url(#paint0_linear)"/>
<g id="Group_2">
<path id="Vector_6" d="M7.70825 14.1676C7.38353 14.1676 7.08325 14.3694 7.08325 15.8343C7.08325 17.2991 7.38356 17.501 7.70825 17.501C8.03294 17.501 8.33325 17.2991 8.33325 15.8343C8.33325 14.3694 8.03298 14.1676 7.70825 14.1676Z" fill="#303C42"/>
<path id="Vector_7" d="M12.2917 17.5C12.6165 17.5 12.9167 17.2982 12.9167 15.8333C12.9167 14.3685 12.6164 14.1666 12.2917 14.1666C11.9671 14.1666 11.6667 14.3685 11.6667 15.8333C11.6667 17.2982 11.967 17.5 12.2917 17.5Z" fill="#303C42"/>
</g>
<path id="Vector_8" d="M20 10C20 4.48609 15.5143 0 10 0C4.48566 0 0 4.48609 0 10C0 12.7237 1.18395 14.7454 3.5016 16.0252C3.96199 19.2534 5.3666 20 10 20C14.504 20 15.9596 19.3015 16.4604 16.2973C18.803 15.0859 20 12.9738 20 10Z" fill="url(#paint1_linear)"/>
</g>
<defs>
<linearGradient id="paint0_linear" x1="7.11102" y1="12.1261" x2="13.9893" y2="19.0043" gradientUnits="userSpaceOnUse">
<stop stop-opacity="0.1"/>
<stop offset="1" stop-opacity="0"/>
</linearGradient>
<linearGradient id="paint1_linear" x1="0.850333" y1="5.96157" x2="18.8702" y2="14.3641" gradientUnits="userSpaceOnUse">
<stop stop-color="white" stop-opacity="0.2"/>
<stop offset="1" stop-color="white" stop-opacity="0"/>
</linearGradient>
</defs>
</svg>
