<svg width="20" height="20" viewBox="0 0 20 20" fill="none" xmlns="http://www.w3.org/2000/svg">
<g id="mario">
<path id="Vector" d="M20 8.33332C20 7.6827 19.4344 6.35254 17.3161 5.87359C17.203 5.73117 17.0866 5.58145 16.9654 5.42641C15.2783 3.26578 12.7287 0 8.33332 0C3.60199 0 2.54996 2.54922 2.50449 6.39984C1.1075 6.85598 0 7.60945 0 8.75C0 10.2006 1.47684 10.7107 2.51906 10.8123C2.60191 12.0641 3.07328 12.7729 3.74438 13.4879C3.4866 13.8585 3.33332 14.3069 3.33332 14.7917C3.33332 15.5088 3.67105 16.1421 4.18828 16.5626C4.41133 19.0883 7.3052 20 10 20C11.8425 20 15.1937 18.634 16.5479 14.9927C19.148 14.8604 20 13.0009 20 12.0833C20 11.406 19.78 10.7316 19.3648 10.2514C19.9983 9.58477 20 8.66477 20 8.33332Z" fill="#303C42"/>
<path id="Vector_2" d="M8.33329 0.833313C12.3217 0.833313 14.6264 3.78456 16.3086 5.93952C16.4648 6.13972 16.6145 6.33097 16.7578 6.51042C16.8188 6.58691 16.9051 6.63941 17.0019 6.65855C18.7687 7.01214 19.1666 8.01109 19.1666 8.33335C19.1666 8.63917 19.1602 9.32269 18.6811 9.74683C18.4529 9.64866 18.2024 9.58335 17.9166 9.58335C17.5729 9.58335 17.2708 9.66769 17.0047 9.81257C13.2758 6.63812 10.326 5.98562 8.01454 5.86159C8.50176 5.37952 8.7643 4.7557 8.74836 4.09542C8.73208 3.42038 8.43016 2.79495 7.89793 2.33437C7.37629 1.88351 6.71465 1.64671 5.97981 1.66218C5.41645 1.67597 4.88555 1.85245 4.44055 2.15706C5.18715 1.29741 6.39629 0.833313 8.33329 0.833313Z" fill="#EC0803"/>
<path id="Vector_3" opacity="0.2" d="M7.14879 1.88339C7.39211 1.86538 7.64555 1.85409 7.91668 1.85409C11.9051 1.85409 14.2098 4.80534 15.892 6.96031C16.0482 7.1605 16.1979 7.35175 16.3412 7.5312C16.4022 7.60769 16.4885 7.66019 16.5853 7.67933C18.3521 8.03288 18.75 9.03183 18.75 9.35409C18.75 9.43683 18.7472 9.54956 18.737 9.67503C19.148 9.24894 19.1667 8.62382 19.1667 8.33331C19.1667 8.01105 18.7687 7.0121 17.002 6.65851C16.9051 6.63937 16.8188 6.58691 16.7578 6.51038C16.6146 6.33093 16.4648 6.13968 16.3086 5.93948C14.6265 3.78456 12.3218 0.833313 8.33332 0.833313C6.39633 0.833313 5.18715 1.29738 4.44055 2.15706C4.88555 1.85245 5.41645 1.67597 5.97981 1.66218C6.39883 1.65339 6.78977 1.73523 7.14879 1.88339Z" fill="white"/>
<g id="Group">
<path id="Vector_4" d="M15.4398 9.70557C15.7371 9.91322 16.0491 10.1444 16.3724 10.3931C16.1082 10.7754 15.9307 11.2779 15.8643 11.8979L14.7405 11.4483C14.9305 11.0501 15.2126 10.4055 15.4398 9.70557Z" fill="#6D4C41"/>
<path id="Vector_5" d="M16.0603 11.0227C16.1441 10.7869 16.2467 10.5738 16.3723 10.3922C16.049 10.1435 15.737 9.91229 15.4397 9.70459C15.3414 10.0076 15.2329 10.2954 15.1259 10.5621C15.4035 10.703 15.7553 10.8637 16.0603 11.0227Z" fill="#6D4C41"/>
</g>
<g id="Group_2">
<path id="Vector_6" d="M6.08154 5.82769C5.59978 5.83581 5.09439 5.67386 4.73064 5.35894C4.66517 5.30237 4.61072 5.2389 4.55603 5.17569L5.34587 4.1228L5.66896 4.76979C5.81056 5.05218 6.27279 5.05218 6.41439 4.76979L6.73748 4.1228L7.51978 5.16565C7.48302 5.20827 7.4513 5.25366 7.40966 5.29347C7.06134 5.62542 6.59013 5.81546 6.08154 5.82769Z" fill="white"/>
<path id="Vector_7" d="M7.90096 4.28428L7.00037 3.0835C6.9133 2.96795 6.7733 2.9012 6.62928 2.91831C6.48521 2.93131 6.35826 3.01799 6.294 3.14698L6.04174 3.65155L5.78947 3.14698C5.72518 3.01799 5.59822 2.93131 5.4542 2.91831C5.31096 2.9012 5.17018 2.96795 5.08311 3.0835L4.1785 4.28959C4.17631 4.26186 4.16822 4.23534 4.16756 4.20737C4.15697 3.76956 4.336 3.35167 4.67291 3.02983C5.02123 2.6978 5.4924 2.50776 6.00103 2.49557C6.01814 2.49518 6.03603 2.49475 6.05393 2.49475C6.54139 2.49475 7.00119 2.66038 7.35193 2.96432C7.70514 3.26952 7.90451 3.67842 7.9151 4.11584C7.91646 4.1728 7.90596 4.22815 7.90096 4.28428Z" fill="white"/>
</g>
<path id="Vector_8" d="M3.43086 4.81171C3.55829 5.25788 3.81083 5.6653 4.18461 5.98878C4.18938 5.99288 4.19516 5.99565 4.19993 5.99971C3.91215 6.04518 3.62454 6.10159 3.34094 6.16729C3.35196 5.68659 3.37926 5.23288 3.43086 4.81171Z" fill="#303C42"/>
<path id="Vector_9" d="M0.833252 8.74998C0.833252 7.52236 3.68806 6.66666 6.24993 6.66666H6.38583C6.83478 6.66509 7.31294 6.66451 7.82134 6.68818C5.50727 6.87451 2.94751 8.27756 2.55618 9.9742C1.95981 9.90658 0.833252 9.659 0.833252 8.74998Z" fill="#EC0803"/>
<path id="Vector_10" opacity="0.1" d="M1.76185 9.16728C1.76185 8.17423 3.63009 7.42509 5.69997 7.17478C6.38427 6.91685 7.11399 6.74513 7.8213 6.68818C7.31294 6.66454 6.83477 6.66509 6.38579 6.66665H6.24993C3.6881 6.66665 0.833252 7.52236 0.833252 8.74997C0.833252 9.46325 1.52497 9.76673 2.11177 9.8981C1.90528 9.72115 1.76185 9.48693 1.76185 9.16728Z" fill="black"/>
<path id="Vector_11" d="M4.16669 12.5C4.16669 12.5968 4.19149 12.6864 4.22192 12.7729C4.03778 12.567 3.88368 12.3678 3.75806 12.1619C3.79364 11.3608 4.14216 10.8333 4.37501 10.8333C4.56005 10.8333 4.81466 11.1553 4.93353 11.6801C4.50645 11.7157 4.16669 12.0641 4.16669 12.5Z" fill="white"/>
<path id="Vector_12" d="M4.87562 11.4704C4.80539 11.4318 4.72293 11.3938 4.6602 11.3938C4.39969 11.3938 4.03582 11.7829 3.88867 12.3596C3.99051 12.5056 4.08965 12.625 4.22191 12.7729C4.19148 12.6864 4.16668 12.5967 4.16668 12.5C4.16668 12.0641 4.50645 11.7157 4.93355 11.68C4.91441 11.5957 4.9009 11.5438 4.87562 11.4704Z" fill="#29B6F6"/>
<path id="Vector_13" d="M16.25 14.1667C16.071 14.1667 15.9115 14.2814 15.8545 14.4515C14.7095 17.8866 11.6561 19.1667 10 19.1667C8.95896 19.1667 5.79275 18.9939 5.13099 17.0265C5.29048 17.0618 5.45505 17.0833 5.62501 17.0833C5.9463 17.0833 6.25166 17.0157 6.52939 16.8959C7.06826 17.1937 7.75474 17.5 8.33333 17.5C9.22119 17.5 9.76564 17.0858 9.93978 16.5975C10.5973 16.4372 11.7912 16.047 12.0377 15.2873C12.4707 15.0549 13.3333 14.4051 13.3333 12.9166C13.3333 12.7632 13.2487 12.6225 13.1136 12.5496C12.9777 12.4772 12.8149 12.4849 12.6863 12.5691C12.6644 12.5838 10.4313 14.038 7.46173 14.1548L7.46189 14.1586C7.45326 14.1593 7.44521 14.1556 7.4365 14.1569C7.20783 14.185 7.04505 14.3929 7.07353 14.6211C7.08005 14.6773 7.0833 14.7338 7.0833 14.7916C7.08334 15.5957 6.42904 16.25 5.62501 16.25C4.82099 16.25 4.16669 15.5957 4.16669 14.7917C4.16669 13.9877 4.82099 13.3334 5.62501 13.3334C5.85533 13.3334 6.04169 13.147 6.04169 12.9167C6.04169 12.7591 5.95095 12.6269 5.82201 12.5561C5.82337 12.5366 5.83333 12.3369 5.83333 12.2917C5.83333 10.9851 5.20673 10 4.37501 10C3.96474 10 3.60318 10.2433 3.34287 10.6477C3.3397 10.5708 3.33337 10.4993 3.33337 10.4167C3.33337 10.1287 3.45783 9.83281 3.66732 9.54434C4.09013 9.4807 4.86732 9.62316 5.12208 9.87793C5.20345 9.9593 5.31009 10 5.41669 10C5.5233 10 5.6299 9.9593 5.7113 9.87793C5.87408 9.71516 5.87408 9.45148 5.7113 9.28875C5.42865 9.00609 4.9615 8.83207 4.49412 8.75137C5.48611 8.03512 6.96392 7.5 8.33333 7.5C9.0624 7.5 9.7465 7.50199 10.4513 7.58422C9.4656 7.48629 8.96501 7.89586 8.57583 8.32641C8.53431 8.37199 8.49525 8.41594 8.4554 8.45539C8.29263 8.61816 8.29263 8.88184 8.4554 9.04457C8.53677 9.12594 8.64341 9.16664 8.75001 9.16664C8.85662 9.16664 8.96322 9.12594 9.04462 9.04457C9.09345 8.99574 9.14228 8.94164 9.19357 8.88508C9.53455 8.5091 9.91947 8.08266 11.5121 8.72027C11.7245 8.80574 11.9678 8.70156 12.0533 8.48793C12.1387 8.2743 12.0354 8.0318 11.8213 7.94633C11.3696 7.76586 10.9892 7.66379 10.6546 7.61012C11.8318 7.77395 13.0853 8.18578 14.718 9.22133C14.3741 10.371 13.8048 11.4597 13.7988 11.4717C13.7435 11.5762 13.7345 11.6991 13.7752 11.8102C13.816 11.9209 13.9022 12.0096 14.0121 12.0536L16.0954 12.8869C16.2232 12.9389 16.3697 12.9223 16.4836 12.845C16.5984 12.7672 16.6667 12.6382 16.6667 12.4999C16.6667 11.8737 16.7888 10.4166 17.9167 10.4166C18.9055 10.4166 19.1667 11.5067 19.1667 12.0833C19.1667 12.7633 18.4538 14.1667 16.25 14.1667Z" fill="#FDC498"/>
<path id="Vector_14" opacity="0.1" d="M17.9166 10.4167C17.7856 10.4167 17.671 10.4403 17.5657 10.4761C17.8249 10.8419 17.9166 11.3363 17.9166 11.6667C17.9166 12.3466 17.2038 13.75 15 13.75C14.8209 13.75 14.6614 13.8648 14.6045 14.0349C13.4595 17.4699 10.4061 18.75 8.74996 18.75C8.30359 18.75 7.46629 18.717 6.60352 18.5257C7.7973 19.0931 9.33336 19.1667 9.99996 19.1667C11.6561 19.1667 14.7095 17.8866 15.8545 14.4515C15.9114 14.2815 16.0709 14.1667 16.25 14.1667C18.4538 14.1667 19.1666 12.7633 19.1666 12.0834C19.1666 11.5068 18.9054 10.4167 17.9166 10.4167Z" fill="black"/>
<path id="Vector_15" opacity="0.2" d="M6.03468 16.1842C5.2339 16.1802 4.58343 15.5282 4.58343 14.7266C4.58343 14.0585 5.03769 13.4999 5.65163 13.328C5.64237 13.3286 5.63448 13.3334 5.62507 13.3334C4.82104 13.3334 4.16675 13.9877 4.16675 14.7917C4.16675 15.5957 4.82104 16.25 5.62507 16.25C5.76823 16.25 5.90386 16.2228 6.03468 16.1842Z" fill="white"/>
<path id="Vector_16" d="M7.9 14.9567C9.86625 14.8051 11.4719 14.1551 12.3682 13.7036C12.1102 14.3904 11.5617 14.5951 11.5348 14.6049C11.3648 14.6614 11.25 14.8205 11.25 15C11.25 15.247 10.3841 15.6637 9.50113 15.8415C9.30664 15.8805 9.16664 16.0514 9.16664 16.25C9.16664 16.4518 8.87449 16.6667 8.33332 16.6667C8.08059 16.6667 7.71418 16.5522 7.29297 16.353C7.64098 15.9814 7.86078 15.4951 7.9 14.9567Z" fill="#6D4C41"/>
<path id="Vector_17" d="M9.99993 8.75C9.08114 8.75 8.33325 9.68465 8.33325 10.8333C8.33325 11.982 9.08114 12.9166 9.99993 12.9166C10.6725 12.9166 11.2502 12.4133 11.5133 11.6943C11.5143 11.6917 11.5168 11.69 11.5177 11.6874C11.5185 11.6849 11.5187 11.6823 11.5195 11.6798C11.5729 11.531 11.612 11.3736 11.6362 11.2089C11.6369 11.204 11.6391 11.1995 11.6397 11.1946C11.6404 11.1893 11.6381 11.1841 11.6386 11.1788C11.6539 11.0658 11.6666 10.9516 11.6666 10.8333C11.6666 9.68465 10.9187 8.75 9.99993 8.75Z" fill="#303C42"/>
<path id="Vector_18" d="M9.16675 10.8333C9.16675 10.1558 9.54843 9.58331 10.0001 9.58331C10.3569 9.58331 10.6668 9.94273 10.7826 10.4269C10.3477 10.4547 10.0001 10.8086 10.0001 11.25C10.0001 11.5396 10.1575 11.7829 10.3826 11.9323C10.2668 12.0253 10.1376 12.0833 10.0001 12.0833C9.54843 12.0833 9.16675 11.5108 9.16675 10.8333Z" fill="white"/>
<path id="Vector_19" d="M10.7825 10.427C10.748 10.2827 10.7047 10.1575 10.6397 10.0417C10.587 10.0252 10.523 10 10.4675 10C10.0158 10 9.63416 10.5725 9.63416 11.25C9.63416 11.5566 9.71509 11.8384 9.84255 12.0587C9.89376 12.0741 9.9463 12.0834 10 12.0834C10.1376 12.0834 10.2667 12.0253 10.3825 11.9323C10.1574 11.7829 9.99998 11.5396 9.99998 11.25C9.99998 10.8086 10.3476 10.4547 10.7825 10.427Z" fill="#29B6F6"/>
<path id="Vector_20" d="M20 8.33332C20 7.6827 19.4344 6.35254 17.3161 5.87359C17.203 5.73117 17.0866 5.58145 16.9654 5.42641C15.2783 3.26578 12.7287 0 8.33332 0C3.60199 0 2.54996 2.54922 2.50449 6.39984C1.1075 6.85598 0 7.60945 0 8.75C0 10.2006 1.47684 10.7107 2.51906 10.8123C2.60191 12.0641 3.07328 12.7729 3.74438 13.4879C3.4866 13.8585 3.33332 14.3069 3.33332 14.7917C3.33332 15.5088 3.67105 16.1421 4.18828 16.5626C4.41133 19.0883 7.3052 20 10 20C11.8425 20 15.1937 18.634 16.5479 14.9927C19.148 14.8604 20 13.0009 20 12.0833C20 11.406 19.78 10.7316 19.3648 10.2514C19.9983 9.58477 20 8.66477 20 8.33332Z" fill="url(#paint0_linear)"/>
</g>
<defs>
<linearGradient id="paint0_linear" x1="0.985999" y1="6.26491" x2="19.0106" y2="14.6692" gradientUnits="userSpaceOnUse">
<stop stop-color="white" stop-opacity="0.2"/>
<stop offset="1" stop-color="white" stop-opacity="0"/>
</linearGradient>
</defs>
</svg>
